<?xml version="1.0"?>
<svg xmlns="http://www.w3.org/2000/svg" xmlns:xlink="http://www.w3.org/1999/xlink" version="1.1" id="Capa_1" x="0px" y="0px" viewBox="0 0 446.68 446.68" style="enable-background:new 0 0 446.68 446.68;" xml:space="preserve" width="512px" height="512px"><g><g>
	<g>
		<path d="M390.686,14.064c-18.752-18.752-49.136-18.752-67.888,0l-79.2,79.2l-11.312-11.312c-6.256-6.256-16.384-6.256-22.624,0    c-6.24,6.256-6.256,16.384,0,22.624l90.512,90.512c6.256,6.256,16.384,6.256,22.624,0c6.24-6.256,6.256-16.384,0-22.624    l-11.312-11.312l79.2-79.2C409.422,63.2,409.422,32.8,390.686,14.064z" data-original="#000000" class="active-path" data-old_color="#ffffff" fill="#ffffff"/>
	</g>
</g><g>
	<g>
		<polygon points="254.926,172.448 145.454,281.92 100.206,304.544 122.83,259.296 232.286,149.824 209.662,127.2 96.526,240.336     51.278,330.848 73.902,353.472 164.414,308.224 277.55,195.072   " data-original="#000000" class="active-path" data-old_color="#ffffff" fill="#ffffff"/>
	</g>
</g><g>
	<g>
		<path d="M96.526,392.096l-22.624-22.624l-22.624,22.624c-12.448,12.448-12.448,32.816,0,45.248    c12.448,12.448,32.816,12.448,45.248,0C108.974,424.896,108.974,404.528,96.526,392.096z" data-original="#000000" class="active-path" data-old_color="#ffffff" fill="#ffffff"/>
	</g>
</g></g> </svg>
