<?xml version="1.0"?>
<svg xmlns="http://www.w3.org/2000/svg" xmlns:xlink="http://www.w3.org/1999/xlink" version="1.1" width="512px" height="512px" viewBox="0 0 16 16" class=""><g><path fill="#ffffff" d="M7.1 1.7l-1.2 1.1-2.3-2.4c-0.6-0.5-1.6-0.5-2.2 0-0.2 0.3-0.4 0.7-0.4 1.1s0.2 0.8 0.4 1.1l2.4 2.4-3.8 3.7 6.4 6.4 7-7.1-6.3-6.3zM2.1 1.9c0-0.1-0.1-0.3-0.1-0.4s0.1-0.3 0.1-0.4c0.2-0.1 0.6-0.1 0.8 0l2.4 2.4-0.8 0.7-2.4-2.3zM2.1 8l3.8-3.8 1.2 1.2c0.1 0.1 0.2 0.1 0.4 0.1s0.3 0 0.4-0.1c0.1-0.2 0.1-0.5-0.1-0.7l-1.2-1.2 0.4-0.4 5 4.9h-9.9z" data-original="#444444" class="active-path" data-old_color="#ffffff"/><path fill="#ffffff" d="M13.5 9c0 0-1.5 4.7-1.5 5.5s0.7 1.5 1.5 1.5 1.5-0.7 1.5-1.5-1.5-5.5-1.5-5.5z" data-original="#444444" class="active-path" data-old_color="#ffffff"/></g> </svg>
